<svg width="64" height="64" viewBox="0 0 64 64" fill="none" xmlns="http://www.w3.org/2000/svg">
<path d="M60.0855 42.9352C60.0855 42.9352 59.9922 42.3627 59.9376 42.3679L49.5506 43.3701C48.7241 43.4499 48.0822 44.109 48.0242 44.9372L47.7389 49.0272L39.703 49.6005L39.1564 45.8938C39.0347 45.0693 38.3147 44.4478 37.4813 44.4478H26.5185C25.6854 44.4478 24.9654 45.0693 24.8437 45.8938L24.2968 49.6005L16.2609 49.0272L15.9756 44.9372C15.9176 44.1087 15.2757 43.4496 14.4492 43.3698L4.057 42.3679C4.00332 42.3627 3.96399 42.9357 3.91031 42.9357L3.89624 45.1836L12.6974 46.6029L12.9857 50.7293C13.0439 51.5647 13.718 52.2402 14.554 52.3002L25.6211 53.0896C25.663 53.0925 25.7043 53.0942 25.7456 53.0942C26.5773 53.0942 27.2961 52.4724 27.4179 51.6479L27.9803 47.8338H36.0198L36.5822 51.6479C36.7036 52.4721 37.4233 53.094 38.2562 53.094C38.2969 53.094 38.3377 53.0925 38.3776 53.0896L49.4461 52.3002C50.2818 52.2402 50.9561 51.5647 51.0144 50.7293L51.3024 46.6029L60.0998 45.1772L60.0855 42.9352Z" fill="white"/>
<path d="M3.91027 25.9857V39.6258V41.3584V42.935C3.94128 42.9353 3.97228 42.9364 4.003 42.9393L14.394 43.9412C14.9383 43.9937 15.3649 44.4318 15.4028 44.9772L15.7232 49.5642L24.7873 50.2109L25.4117 45.9774C25.4927 45.4285 25.9635 45.0217 26.5187 45.0217H37.4816C38.0365 45.0217 38.5073 45.4285 38.5883 45.9774L39.2127 50.2109L48.2771 49.5642L48.5972 44.9772C48.6354 44.4318 49.0617 43.994 49.606 43.9412L59.993 42.9393C60.0237 42.9364 60.0544 42.9353 60.0854 42.935V41.5826L60.0897 41.5811V25.9857H60.1282C61.5047 24.2288 62.7785 22.3774 64 20.4023C62.3777 17.6407 60.39 15.1727 58.2654 12.8861C56.2949 13.878 54.3809 15.0016 52.5732 16.1972C51.6686 15.2981 50.6498 14.5626 49.649 13.7938C48.6658 13.0041 47.5577 12.4251 46.5067 11.7504C46.8196 9.42022 46.9743 7.12619 47.0366 4.73198C44.3249 3.36721 41.4332 2.46235 38.5082 1.81241C37.3403 3.77515 36.2724 5.90067 35.3423 7.97853C34.2393 7.79422 33.1312 7.7259 32.0217 7.71269V7.71097C32.0139 7.71097 32.0067 7.71269 32.0001 7.71269C31.9933 7.71269 31.9861 7.71097 31.9792 7.71097V7.71269C30.8676 7.7259 29.7604 7.79422 28.6571 7.97853C27.7276 5.90067 26.6602 3.77515 25.4907 1.81241C22.5671 2.46235 19.6751 3.36721 16.9636 4.73198C17.0257 7.12619 17.1804 9.42022 17.4942 11.7504C16.4412 12.4251 15.3345 13.0041 14.351 13.7938C13.3516 14.5626 12.3311 15.2981 11.4262 16.1972C9.6185 15.0016 7.70514 13.878 5.73407 12.8861C3.60941 15.1727 1.62284 17.6407 0 20.4023C1.22094 22.3774 2.49556 24.2288 3.8718 25.9857H3.91027Z" fill="#478CBF"/>
<path d="M50.7635 46.078L50.4417 50.6893C50.4029 51.245 49.9608 51.6874 49.405 51.7273L38.3368 52.5171C38.3098 52.5191 38.2828 52.52 38.2561 52.52C37.7061 52.52 37.2316 52.1163 37.1503 51.564L36.5156 47.2596H27.4845L26.8497 51.564C26.7645 52.1433 26.2466 52.5599 25.6632 52.5171L14.595 51.7273C14.0392 51.6874 13.5971 51.245 13.5584 50.6893L13.2366 46.078L3.89307 45.1771C3.89737 46.1813 3.91029 47.2814 3.91029 47.5004C3.91029 57.3684 16.4283 62.1115 31.9809 62.166H31.9999H32.0191C47.5718 62.1115 60.0854 57.3684 60.0854 47.5004C60.0854 47.2774 60.0989 46.1819 60.1035 45.1771L50.7635 46.078Z" fill="#478CBF"/>
<path d="M23.5322 32.8663C23.5322 36.3262 20.7289 39.1289 17.2702 39.1289C13.8132 39.1289 11.009 36.3262 11.009 32.8663C11.009 29.4088 13.8132 26.6075 17.2702 26.6075C20.7289 26.6075 23.5322 29.4088 23.5322 32.8663Z" fill="white"/>
<path d="M22.0253 33.2377C22.0253 35.5326 20.1654 37.3926 17.8687 37.3926C15.5733 37.3926 13.7122 35.5326 13.7122 33.2377C13.7122 30.9428 15.5733 29.0811 17.8687 29.0811C20.1654 29.0811 22.0253 30.9428 22.0253 33.2377Z" fill="#414042"/>
<path d="M31.9997 39.6987C30.8864 39.6987 29.9841 38.8783 29.9841 37.8669V32.1021C29.9841 31.0916 30.8864 30.2703 31.9997 30.2703C33.113 30.2703 34.0173 31.0916 34.0173 32.1021V37.8669C34.0173 38.8783 33.113 39.6987 31.9997 39.6987Z" fill="white"/>
<path d="M40.468 32.8663C40.468 36.3262 43.2713 39.1289 46.7306 39.1289C50.1873 39.1289 52.9912 36.3262 52.9912 32.8663C52.9912 29.4088 50.1873 26.6075 46.7306 26.6075C43.2713 26.6075 40.468 29.4088 40.468 32.8663Z" fill="white"/>
<path d="M41.9749 33.2377C41.9749 35.5326 43.8342 37.3926 46.1291 37.3926C48.4263 37.3926 50.2857 35.5326 50.2857 33.2377C50.2857 30.9428 48.4263 29.0811 46.1291 29.0811C43.8342 29.0811 41.9749 30.9428 41.9749 33.2377Z" fill="#414042"/>
</svg>
